<svg version="1.2" xmlns="http://www.w3.org/2000/svg" viewBox="0 0 250 50" width="250" height="50">
	<title>New Project</title>
	<style>
		.s0 { fill: #ffffff } 
	</style>
	<path id="KRANKOS" class="s0" aria-label="KRANKOS"  d="m38 39h7.8l-12.8-16.2 12.1-13h-7.5l-12.9 13.7v-13.7h-6.7v29.2h6.7v-7.4l3.9-4.1zm36.7 0l-6.5-9.3c3.8-1.7 6-4.9 6-9.3 0-6.5-4.9-10.5-12.7-10.5h-12.6v29.1h6.7v-8.1h5.9 0.4l5.6 8.1zm-7.4-18.6c0 3.2-2.1 5.1-6.2 5.1h-5.5v-10.1h5.5c4.1 0 6.2 1.8 6.2 5zm34 18.6h7.1l-13.1-29.1h-6.6l-13.1 29.1h7l2.5-6.2h13.6zm-14-11.4l4.7-11.2 4.6 11.2zm44.2-17.8v17.7l-14.5-17.7h-5.6v29.2h6.6v-17.7l14.6 17.7h5.5v-29.2zm33.6 29.2h7.9l-12.8-16.2 12.1-13h-7.5l-13 13.6v-13.6h-6.7v29.2h6.7v-7.4l4-4.1zm23.9 0.5c9.2 0 16-6.4 16-15.1 0-8.7-6.8-15.1-16-15.1-9.2 0-15.9 6.5-15.9 15.1 0 8.7 6.7 15.1 15.9 15.1zm0-5.7c-5.2 0-9.1-3.8-9.1-9.4 0-5.5 3.9-9.3 9.1-9.3 5.2 0 9.2 3.8 9.2 9.3 0 5.6-4 9.4-9.2 9.4zm30.7 5.7c8.3 0 12.3-4.1 12.3-9 0-10.7-16.9-7-16.9-12.4 0-1.8 1.5-3.3 5.5-3.3 2.6 0 5.4 0.7 8.1 2.3l2.1-5.2c-2.7-1.7-6.5-2.6-10.1-2.6-8.3 0-12.3 4.2-12.3 9.1 0 10.9 16.9 7.1 16.9 12.6 0 1.8-1.6 3.1-5.6 3.1-3.5 0-7.2-1.2-9.6-3l-2.3 5c2.6 2 7.2 3.4 11.9 3.4z"/>
</svg>